<svg width="20" height="20" viewBox="0 0 20 20" fill="none" xmlns="http://www.w3.org/2000/svg">
<circle cx="10" cy="10" r="10" fill="#4F4B5D"/>
<g clip-path="url(#clip0_104_501)">
<path fill-rule="evenodd" clip-rule="evenodd" d="M0 10C0 7.34784 1.05357 4.8043 2.92893 2.92893C4.8043 1.05357 7.34784 0 10 0C12.6522 0 15.1957 1.05357 17.0711 2.92893C18.9464 4.8043 20 7.34784 20 10C20 12.6522 18.9464 15.1957 17.0711 17.0711C15.1957 18.9464 12.6522 20 10 20C7.34784 20 4.8043 18.9464 2.92893 17.0711C1.05357 15.1957 0 12.6522 0 10ZM5.33333 8H6.66667V6.66667H5.33333V8ZM7.76 14.7133C9.49864 13.6246 11.5376 13.1149 13.584 13.2573L14.248 13.304L14.3413 11.9733L13.6747 11.928C11.3482 11.7662 9.03021 12.3454 7.05333 13.5827L6.488 13.9373L7.196 15.0667L7.76 14.7133ZM14.6667 8H13.3333V6.66667H14.6667V8Z" fill="#C3C0CE"/>
</g>
<defs>
<clipPath id="clip0_104_501">
<rect width="20" height="20" fill="white"/>
</clipPath>
</defs>
</svg>
