<svg width="20" height="20" viewBox="0 0 20 20" fill="none" xmlns="http://www.w3.org/2000/svg">
<circle cx="10" cy="10" r="10" fill="#4F4B5D"/>
<path fill-rule="evenodd" clip-rule="evenodd" d="M0 10C0 7.34784 1.05357 4.8043 2.92893 2.92893C4.8043 1.05357 7.34784 0 10 0C12.6522 0 15.1957 1.05357 17.0711 2.92893C18.9464 4.8043 20 7.34784 20 10C20 12.6522 18.9464 15.1957 17.0711 17.0711C15.1957 18.9464 12.6522 20 10 20C7.34784 20 4.8043 18.9464 2.92893 17.0711C1.05357 15.1957 0 12.6522 0 10ZM5.33333 8H6.66667V6.66667H5.33333V8ZM13.3333 8H14.6667V6.66667H13.3333V8ZM6.53333 11.6C6.93697 12.1382 7.46037 12.575 8.06207 12.8759C8.66378 13.1767 9.32727 13.3333 10 13.3333C10.6727 13.3333 11.3362 13.1767 11.9379 12.8759C12.5396 12.575 13.063 12.1382 13.4667 11.6L14.5333 12.4C12.2667 15.4227 7.73333 15.4227 5.46667 12.4L6.53333 11.6Z" fill="#BB86FC"/>
</svg>
