<svg width="384" height="397" viewBox="0 0 384 397" fill="none" xmlns="http://www.w3.org/2000/svg">
<path fill-rule="evenodd" clip-rule="evenodd" d="M292.5 0C348 0 384 37.209 384 94.5729V302.323C384 359.687 348 396.896 292.5 396.896H91.5002C36 396.896 0 359.687 0 302.323V94.5729C0 37.209 36 0 91.5002 0H292.5Z" fill="#BB86FC"/>
<path fill-rule="evenodd" clip-rule="evenodd" d="M146.637 61.5186C147.95 63.6914 148.375 66.3142 147.819 68.8108C147.262 71.3073 145.77 73.4735 143.669 74.8333L93.7866 107.057C91.6831 108.416 89.1435 108.855 86.7265 108.279C84.3094 107.702 82.213 106.157 80.8983 103.983C79.5836 101.808 79.1583 99.1836 79.7161 96.6854C80.2739 94.1872 81.769 92.0203 83.8725 90.6614L133.755 58.438C135.859 57.0818 138.397 56.6444 140.813 57.2221C143.228 57.7997 145.323 59.3451 146.637 61.5186ZM243.01 61.5186C243.66 60.4406 244.51 59.5058 245.51 58.7675C246.51 58.0292 247.642 57.5019 248.839 57.2158C250.037 56.9297 251.277 56.8904 252.489 57.1001C253.702 57.3098 254.862 57.7645 255.904 58.438L305.787 90.6614C307.89 92.0203 309.385 94.1872 309.943 96.6854C310.501 99.1836 310.076 101.808 308.761 103.983C308.11 105.059 307.26 105.993 306.26 106.73C305.26 107.467 304.129 107.993 302.933 108.279C300.516 108.855 297.976 108.416 295.873 107.057L245.99 74.8333C243.887 73.4755 242.392 71.3103 241.833 68.8136C241.274 66.3169 241.698 63.693 243.01 61.5186ZM194.823 324.423C209.562 324.423 224.157 321.423 237.774 315.593C251.391 309.763 263.764 301.218 274.186 290.446C284.608 279.674 292.875 266.886 298.515 252.812C304.156 238.737 307.059 223.653 307.059 208.419C307.059 193.185 304.156 178.1 298.515 164.026C292.875 149.952 284.608 137.163 274.186 126.391C263.764 115.619 251.391 107.074 237.774 101.245C224.157 95.4149 209.562 92.4144 194.823 92.4144C165.057 92.4144 136.509 104.636 115.461 126.391C94.4128 148.146 82.588 177.653 82.588 208.419C82.588 239.185 94.4128 268.691 115.461 290.446C136.509 312.201 165.057 324.423 194.823 324.423ZM157.412 179.418C154.931 179.418 152.552 178.399 150.798 176.586C149.044 174.773 148.059 172.315 148.059 169.751C148.059 167.187 149.044 164.728 150.798 162.915C152.552 161.102 154.931 160.084 157.412 160.084H232.235C234.084 160.085 235.89 160.653 237.427 161.716C238.964 162.778 240.161 164.287 240.868 166.052C241.576 167.818 241.761 169.76 241.401 171.634C241.04 173.508 240.151 175.23 238.844 176.582L179.983 237.42H232.235C234.716 237.42 237.095 238.438 238.849 240.251C240.603 242.064 241.588 244.523 241.588 247.087C241.588 249.651 240.603 252.11 238.849 253.923C237.095 255.735 234.716 256.754 232.235 256.754H157.412C155.563 256.752 153.756 256.184 152.22 255.122C150.683 254.06 149.486 252.551 148.778 250.785C148.071 249.02 147.886 247.077 148.246 245.203C148.606 243.329 149.496 241.607 150.802 240.256L209.663 179.418H157.412Z" fill="#262134"/>
</svg>
