<svg width="20" height="20" viewBox="0 0 20 20" fill="none" xmlns="http://www.w3.org/2000/svg">
<circle cx="10" cy="10" r="10" fill="#4F4B5D"/>
<path fill-rule="evenodd" clip-rule="evenodd" d="M0 10C0 7.34784 1.05357 4.8043 2.92893 2.92893C4.8043 1.05357 7.34784 0 10 0C12.6522 0 15.1957 1.05357 17.0711 2.92893C18.9464 4.8043 20 7.34784 20 10C20 12.6522 18.9464 15.1957 17.0711 17.0711C15.1957 18.9464 12.6522 20 10 20C7.34784 20 4.8043 18.9464 2.92893 17.0711C1.05357 15.1957 0 12.6522 0 10ZM5.33333 8H6.66667V6.66667H5.33333V8ZM13.3333 8H14.6667V6.66667H13.3333V8ZM6.53333 13.7333C6.93697 13.1952 7.46037 12.7583 8.06207 12.4575C8.66378 12.1566 9.32727 12 10 12C10.6727 12 11.3362 12.1566 11.9379 12.4575C12.5396 12.7583 13.063 13.1952 13.4667 13.7333L14.5333 12.9333C12.2667 9.91067 7.73333 9.91067 5.46667 12.9333L6.53333 13.7333Z" fill="#262134"/>
</svg>
